# xmcd CD database file
#
# Track frame offsets:
#	150
#	23127
#	36909
#	54066
#	70439
#	89287
#	107302
#	123525
#	141476
#	155303
#	171373
#	190613
#	208576
#	225639
#	242305
#	260646
#	284351
#	311274
#	336820
#
# Disc length: 4688 seconds
#
# Revision: 3
# Processed by: cddbd v1.5.2PL0 Copyright (c) Steve Scherf et al.
# Submitted via: CDex 1.70beta2
#
DISCID=03124e13
DTITLE=ORANGE RANGE - ИATURAL
DYEAR=2005
DGENRE=JPop
TTITLE0=yumekaze
TTITLE1=夢人
TTITLE2=お願い!セニョリータ
TTITLE3=Winter Winner
TTITLE4=CRAZYBAND
TTITLE5=雨
TTITLE6=GOD69
TTITLE7=HYSTERIC TAXI
TTITLE8=pe nyom pong
TTITLE9=盃 Jammer
TTITLE10=*～アスタリスク～
TTITLE11=sunrise
TTITLE12=U topia
TTITLE13=BETWEEN
TTITLE14=re-cycle
TTITLE15=キズナ
TTITLE16=ラヴ・パレード
TTITLE17=Иatural Pop
TTITLE18=''Kirikirimai～Fantastic Four Remix～''
EXTD=YEAR: 2005
EXTT0=
EXTT1=
EXTT2=
EXTT3=
EXTT4=
EXTT5=
EXTT6=
EXTT7=
EXTT8=
EXTT9=
EXTT10=
EXTT11=
EXTT12=
EXTT13=
EXTT14=
EXTT15=
EXTT16=
EXTT17=
EXTT18=
PLAYORDER=
